<svg xmlns="http://www.w3.org/2000/svg" xmlns:xlink="http://www.w3.org/1999/xlink" width="165" height="165" viewBox="0 0 165 165"><defs><filter id="a" x="0" y="0" width="165" height="165" filterUnits="userSpaceOnUse"><feOffset dy="10" input="SourceAlpha"/><feGaussianBlur stdDeviation="12" result="b"/><feFlood flood-opacity="0.051"/><feComposite operator="in" in2="b"/><feComposite in="SourceGraphic"/></filter></defs><g transform="translate(-1279 -1293.5)"><g transform="matrix(1, 0, 0, 1, 1279, 1293.5)" filter="url(#a)"><circle cx="46.5" cy="46.5" r="46.5" transform="translate(36 26)" fill="#f86b6a"/></g><path d="M61.539,587.582H72.61v-2.2a.591.591,0,0,0-.178-.425.6.6,0,0,0-.431-.178H62.148a.606.606,0,0,0-.431.178.6.6,0,0,0-.178.425v2.2Zm-10.268,0h9.472v-2.2a1.413,1.413,0,0,1,1.4-1.409H72a1.41,1.41,0,0,1,1.4,1.409v2.2h9.474a2.4,2.4,0,0,1,1.7.707v0a2.4,2.4,0,0,1,.709,1.7v19.121a2.421,2.421,0,0,1-2.414,2.413H51.272a2.4,2.4,0,0,1-1.7-.709h0l-.005,0a2.4,2.4,0,0,1-.7-1.7V590a2.414,2.414,0,0,1,2.413-2.413Zm31.607.8H51.272A1.608,1.608,0,0,0,49.662,590v13.437h14.1v-1.2a.4.4,0,0,1,.4-.4h5.821a.4.4,0,0,1,.4.4v1.2h14.1V590a1.611,1.611,0,0,0-.47-1.137h0a1.6,1.6,0,0,0-1.137-.47ZM49.662,604.236v4.88a1.6,1.6,0,0,0,.471,1.136v0a1.606,1.606,0,0,0,1.138.47H82.879a1.613,1.613,0,0,0,1.609-1.608v-4.88h-14.1v2.241a.4.4,0,0,1-.4.4H64.165a.4.4,0,0,1-.4-.4v-2.241Zm19.925-.344c0-.02,0-.039,0-.058s0-.039,0-.057V602.63H64.563v1.148c0,.018,0,.036,0,.057s0,.038,0,.058v2.181h5.025Z" transform="translate(1294.141 768.523)" fill="#fff" fill-rule="evenodd"/></g></svg>