<svg xmlns="http://www.w3.org/2000/svg" xmlns:xlink="http://www.w3.org/1999/xlink" width="165" height="165" viewBox="0 0 165 165"><defs><filter id="a" x="0" y="0" width="165" height="165" filterUnits="userSpaceOnUse"><feOffset dy="10" input="SourceAlpha"/><feGaussianBlur stdDeviation="12" result="b"/><feFlood flood-opacity="0.051"/><feComposite operator="in" in2="b"/><feComposite in="SourceGraphic"/></filter></defs><g transform="translate(-1279 -977.5)"><g transform="matrix(1, 0, 0, 1, 1279, 977.5)" filter="url(#a)"><circle cx="46.5" cy="46.5" r="46.5" transform="translate(36 26)" fill="#fd944e"/></g><path d="M270.743,687.922a10.837,10.837,0,0,1,6.9,19.2v2.941a2.245,2.245,0,0,1-1.406,2.081v3.714a2.252,2.252,0,0,1-2.245,2.245h-.859v1.413a.376.376,0,0,1-.375.375h-4.021a.375.375,0,0,1-.373-.375V718.1H267.5a2.239,2.239,0,0,1-1.584-.659h0l0,0a2.24,2.24,0,0,1-.654-1.582v-3.716a2.277,2.277,0,0,1-.751-.495h0v0l0,0a2.23,2.23,0,0,1-.655-1.579v-2.941a10.84,10.84,0,0,1,6.9-19.2Zm-10.053.258-3.077-3.077a.374.374,0,0,0-.53.528l3.077,3.077a.374.374,0,0,0,.53-.528Zm20.635.528,3.077-3.077a.373.373,0,0,0-.527-.528l-3.08,3.077a.377.377,0,0,0,0,.528.371.371,0,0,0,.53,0Zm-25.172,9.68a.374.374,0,0,1,0,.748H251.8a.374.374,0,1,1,0-.748Zm29.182.748a.374.374,0,1,1,0-.748h4.352a.374.374,0,0,1,0,.748Zm-14.218-14.964a.373.373,0,0,1-.745,0v-4.354a.373.373,0,1,1,.745,0v4.354ZM266,714.5h9.483v-2.2H266v2.2Zm9.483.748H266v.607a1.493,1.493,0,0,0,.438,1.057v0a1.5,1.5,0,0,0,1.057.437h6.49a1.5,1.5,0,0,0,1.5-1.5v-.607Zm-1.84-12.312v-1.963h-2.528v1.946a.373.373,0,0,1-.745,0v-1.946H267.84V711.56h5.8v-8.619Zm0-2.711v-1.942a.375.375,0,1,1,.75,0V711.56h1a1.5,1.5,0,0,0,1.5-1.495v-3.117h0a.374.374,0,0,1,.141-.293,10.172,10.172,0,0,0,2.808-3.517,10.1,10.1,0,1,0-15.406,3.5.377.377,0,0,1,.158.307v3.117a1.5,1.5,0,0,0,.437,1.057h0a1.485,1.485,0,0,0,1.055.437h1V698.288a.374.374,0,1,1,.748,0v1.942h2.531v-1.942a.373.373,0,1,1,.745,0v1.942ZM272.38,718.1h-3.273v1.04h3.273Z" transform="translate(1090.576 350.057)" fill="#fff" fill-rule="evenodd"/></g></svg>