<svg xmlns="http://www.w3.org/2000/svg" width="107" height="107" viewBox="0 0 107 107"><path d="M53.5,107A53.514,53.514,0,0,1,32.682,4.206a53.509,53.509,0,0,1,41.637,98.587A53.125,53.125,0,0,1,53.5,107Zm0-48.686a57.241,57.241,0,0,0-20,4.247,28.562,28.562,0,0,0-8.519,5.165c-2.337,2.19-3.541,4.567-3.579,7.066a38.52,38.52,0,0,0,64.2,0c-.038-2.5-1.244-4.875-3.586-7.066a28.643,28.643,0,0,0-8.532-5.165A57.244,57.244,0,0,0,53.5,58.315Zm0-42.265A16.05,16.05,0,1,0,69.55,32.1,16.068,16.068,0,0,0,53.5,16.05Z" fill="#a93a8c"/></svg>