<svg xmlns="http://www.w3.org/2000/svg" width="39" height="39" viewBox="0 0 39 39"><g transform="translate(-972 -413)"><g transform="translate(975 416)" fill="#e48050" stroke="#fff" stroke-miterlimit="10" stroke-width="3"><circle cx="16.5" cy="16.5" r="16.5" stroke="none"/><circle cx="16.5" cy="16.5" r="18" fill="none"/></g><path d="M15.521,16H3.7a1.5,1.5,0,0,1-1.478-1.524V6.857H4.435V4.571H6.652V2.286h5.174L13.179,3.81h2.343A1.5,1.5,0,0,1,17,5.333v9.143A1.5,1.5,0,0,1,15.521,16ZM9.608,6.095a3.758,3.758,0,0,0-3.7,3.81,3.758,3.758,0,0,0,3.7,3.81A3.759,3.759,0,0,0,13.3,9.9,3.759,3.759,0,0,0,9.608,6.095Zm0,6.248A2.439,2.439,0,1,1,11.974,9.9,2.405,2.405,0,0,1,9.608,12.343ZM3.7,6.095H2.218V3.81H0V2.286H2.218V0H3.7V2.286H5.913V3.81H3.7V6.094Z" transform="translate(982 424)" fill="#fff"/></g></svg>