<svg xmlns="http://www.w3.org/2000/svg" xmlns:xlink="http://www.w3.org/1999/xlink" width="165" height="165" viewBox="0 0 165 165"><defs><filter id="a" x="0" y="0" width="165" height="165" filterUnits="userSpaceOnUse"><feOffset dy="10" input="SourceAlpha"/><feGaussianBlur stdDeviation="12" result="b"/><feFlood flood-opacity="0.051"/><feComposite operator="in" in2="b"/><feComposite in="SourceGraphic"/></filter></defs><g transform="translate(-477 -1293.5)"><g transform="matrix(1, 0, 0, 1, 477, 1293.5)" filter="url(#a)"><circle cx="46.5" cy="46.5" r="46.5" transform="translate(36 26)" fill="#a93a8c"/></g><path d="M615.062,1486.906a4.233,4.233,0,0,0,3-1.243h0l0,0a4.246,4.246,0,0,0,0-6l-.023-.024a4.249,4.249,0,0,0-5.981.022l0,0h0a4.242,4.242,0,0,0,0,6l.023.026a4.238,4.238,0,0,0,2.98,1.221Zm1.3,25.518H593.843a.482.482,0,0,1-.48-.482v-11.135a.483.483,0,0,1,.48-.482l.04,0,4.157-.021h0v0a.945.945,0,0,0,.673-.279l0,0a.95.95,0,0,0,.277-.674,6.325,6.325,0,0,1,1.863-4.493h0v0h0a6.359,6.359,0,0,1,10.855,4.5.985.985,0,0,0,.987.989h0l2.39,0v-6.994h-.029a10.685,10.685,0,1,1,8.1-3.719l1.447,13.64a8.284,8.284,0,0,1-.334,3.435h0a8.233,8.233,0,0,1-7.908,5.725Zm-.793-.964h.793a7.075,7.075,0,0,0,5.446-2.427,7.329,7.329,0,0,0,1.548-2.63h0a7.326,7.326,0,0,0,.292-3.041l-1.359-12.837a10.649,10.649,0,0,1-6.238,2.772v7.521h0a.483.483,0,0,1-.481.48l-2.872,0h0a1.956,1.956,0,0,1-1.379-.573h0a1.937,1.937,0,0,1-.573-1.379,5.4,5.4,0,0,0-9.213-3.817v0a5.383,5.383,0,0,0-1.579,3.815,1.912,1.912,0,0,1-.56,1.353h0v0h0a1.91,1.91,0,0,1-1.353.56v0l-3.717.02v10.176Zm-.511-19.081a9.728,9.728,0,1,1,5.441-1.666l-.007.006c-.129.087-.261.169-.393.252l-.006,0-.085.052-.008,0-.01.007-.092.053h0l-.011.008-.052.027-.039.023-.016.008-.05.031-.037.018-.019.01-.052.029-.032.016-.021.011-.084.045-.024.011-.055.027-.026.015-.027.013-.055.026-.024.013-.032.015-.05.024-.022.01-.084.041-.024.011-.029.011-.053.024-.026.011-.029.011-.053.024-.026.013-.027.011-.163.066-.031.011-.023.008-.055.021-.034.014-.11.039-.023.008a9.636,9.636,0,0,1-2.819.571h-.016l-.011,0c-.156.006-.314.011-.474.011Zm3.683-6.039a5.206,5.206,0,0,1-7.339.027l-.029-.024a5.213,5.213,0,0,1,0-7.37l0,0a5.2,5.2,0,0,1,7.338-.027l.029.026a5.213,5.213,0,0,1,0,7.37Z" transform="translate(-50.362 -126.475)" fill="#fff" fill-rule="evenodd"/></g></svg>