<svg xmlns="http://www.w3.org/2000/svg" xmlns:xlink="http://www.w3.org/1999/xlink" width="196" height="196" viewBox="0 0 196 196"><defs><filter id="a" x="0" y="0" width="196" height="196" filterUnits="userSpaceOnUse"><feOffset dy="6" input="SourceAlpha"/><feGaussianBlur stdDeviation="5" result="b"/><feFlood flood-color="#8386a3" flood-opacity="0.122"/><feComposite operator="in" in2="b"/><feComposite in="SourceGraphic"/></filter></defs><g transform="translate(-530 -383.5)"><g transform="matrix(1, 0, 0, 1, 530, 383.5)" filter="url(#a)"><rect width="165" height="165" rx="2" transform="translate(15.5 9.5)" fill="#fff" stroke="#e0e3e7" stroke-miterlimit="10" stroke-width="1"/></g><g transform="translate(-115 71)"><text transform="translate(710 423)" fill="#101727" font-size="16" font-family="SegoeUI, Segoe UI"><tspan x="0" y="0">Add New</tspan></text><path d="M10,20A10,10,0,1,1,20,10,10.011,10.011,0,0,1,10,20ZM10,2a8,8,0,1,0,8,8A8.008,8.008,0,0,0,10,2Zm1,13H9V11H5V9H9V5h2V9h4v2H11v4Z" transform="translate(733 382.5)" fill="#5c5f64"/></g></g></svg>