<svg xmlns="http://www.w3.org/2000/svg" xmlns:xlink="http://www.w3.org/1999/xlink" width="165" height="165" viewBox="0 0 165 165"><defs><filter id="a" x="0" y="0" width="165" height="165" filterUnits="userSpaceOnUse"><feOffset dy="10" input="SourceAlpha"/><feGaussianBlur stdDeviation="12" result="b"/><feFlood flood-opacity="0.051"/><feComposite operator="in" in2="b"/><feComposite in="SourceGraphic"/></filter></defs><g transform="translate(-879 -1293.5)"><g transform="matrix(1, 0, 0, 1, 879, 1293.5)" filter="url(#a)"><circle cx="46.5" cy="46.5" r="46.5" transform="translate(36 26)" fill="#7f6aee"/></g><path d="M1746.13,701.67c.019.247.038.532.062.852a26.858,26.858,0,0,0,.311,3.092l1.387.856a17.286,17.286,0,0,1,6.742,2.733,5.52,5.52,0,0,1,2.5,4.432h0v5.546a2.465,2.465,0,0,1-.72,1.736h0a2.456,2.456,0,0,1-1.735.723h-28.179a2.458,2.458,0,0,1-1.736-.723h0l-.006-.006a2.451,2.451,0,0,1-.719-1.729v-5.546a5.5,5.5,0,0,1,2.5-4.421,17.4,17.4,0,0,1,6.756-2.72l1.4-.91a27.172,27.172,0,0,0,.267-3.1c.018-.33.034-.628.048-.847q-.329-.358-.638-.749a13.287,13.287,0,0,1-2.011-3.623,11.4,11.4,0,0,1-.717-3.874v-.063a.3.3,0,0,1,.007-.078c-.007-.17-.011-.328-.011-.465,0-.682-.011-1.23-.021-1.761-.1-5.571-.178-9.831,8.975-9.831s9.073,4.26,8.972,9.831c-.01.531-.019,1.079-.019,1.761,0,.045,0,.136-.005.266l0,.2a.723.723,0,0,1,.007.074h0v.063a11.4,11.4,0,0,1-.72,3.874,13.3,13.3,0,0,1-2.013,3.623c-.214.276-.44.536-.672.786Zm-10.425-.481h0l.005.007.015.014a9.067,9.067,0,0,0,2,1.6,5.275,5.275,0,0,0,5.718,0,9.767,9.767,0,0,0,2.718-2.431,12.424,12.424,0,0,0,1.887-3.4,11,11,0,0,0,.625-2.708l-.664-2.049L1748,692.2a7.027,7.027,0,0,1-.2-1.172c-.032-.348-.039-.713-.045-1.067a8.17,8.17,0,0,0-.085-1.2l-.005-.032a2.035,2.035,0,0,0-.377-.9c-.653-.856-2.341-.442-3.99-.038a12.513,12.513,0,0,1-2.718.466,12.678,12.678,0,0,1-2.519-.418c-1.7-.391-3.574-.819-4.192-.01a2.055,2.055,0,0,0-.38.928,7.787,7.787,0,0,0-.085,1.2c-.008.354-.016.718-.046,1.067h0a7.063,7.063,0,0,1-.2,1.171l-.007.025h0l-.665,2.039a10.964,10.964,0,0,0,.627,2.716,12.456,12.456,0,0,0,1.887,3.4c.222.284.457.554.7.809Zm.071,1.205-.008.129a29.838,29.838,0,0,1-.269,3.15q.115.086.23.169a12.819,12.819,0,0,0,1.676,1.03,6.527,6.527,0,0,0,3.409.8,7.587,7.587,0,0,0,2.829-.806,18.477,18.477,0,0,0,1.756-.987l.287-.181a30.337,30.337,0,0,1-.311-3.117l-.01-.159a9.561,9.561,0,0,1-1.512,1.1,6.076,6.076,0,0,1-6.538,0,9.456,9.456,0,0,1-1.538-1.124Zm12.951-10.672.012-.712c.094-5.1.165-9-8.156-9s-8.249,3.9-8.157,9l.012.708a6.672,6.672,0,0,0,.107-.757h0c.03-.363.039-.692.045-1.013a8.764,8.764,0,0,1,.094-1.327,2.912,2.912,0,0,1,.536-1.282c.937-1.226,3.078-.736,5.026-.291a12.105,12.105,0,0,0,2.336.4,11.685,11.685,0,0,0,2.526-.444c1.9-.463,3.857-.941,4.832.339a2.883,2.883,0,0,1,.532,1.245l.005.037a8.949,8.949,0,0,1,.1,1.327c.005.322.012.65.045,1.015a6.234,6.234,0,0,0,.105.76Zm-13.7,14.614-.827.542-.2.13a5.694,5.694,0,0,0,2.361,1.948,10.066,10.066,0,0,0,4.227.954,9.331,9.331,0,0,0,4.005-.95,7.132,7.132,0,0,0,2.574-1.981l-.2-.122-.8-.5q-.405.261-.8.5a9.921,9.921,0,0,1-4.5,1.626,8.183,8.183,0,0,1-5.072-1.611c-.25-.166-.506-.344-.768-.538Zm-1.784,1a16.294,16.294,0,0,0-6.216,2.528,4.713,4.713,0,0,0-2.168,3.765v5.546a1.627,1.627,0,0,0,.479,1.157h0a1.626,1.626,0,0,0,1.157.483h28.179a1.648,1.648,0,0,0,1.64-1.64v-5.546h0a4.752,4.752,0,0,0-2.172-3.779,16.249,16.249,0,0,0-6.21-2.542,7.771,7.771,0,0,1-2.986,2.384,10.189,10.189,0,0,1-4.36,1.031,10.943,10.943,0,0,1-4.584-1.034A6.422,6.422,0,0,1,1733.238,707.34Z" transform="translate(-779.032 664.311)" fill="#fff" fill-rule="evenodd"/></g></svg>